<svg width="1600" height="1200" viewBox="0 0 1600 1200" fill="none" xmlns="http://www.w3.org/2000/svg">
  <rect width="1600" height="1200" fill="#09090B"/>
  <rect x="90" y="90" width="1420" height="1020" rx="44" fill="#101217" stroke="#D4AF37" stroke-opacity="0.22"/>
  <circle cx="1265" cy="220" r="195" fill="#D4AF37" fill-opacity="0.12"/>
  <circle cx="800" cy="520" r="192" fill="#171A22" stroke="#EED48B" stroke-opacity="0.24" stroke-width="10"/>
  <circle cx="800" cy="520" r="104" fill="#D4AF37" fill-opacity="0.18" stroke="#EED48B" stroke-opacity="0.45" stroke-width="8"/>
  <circle cx="800" cy="520" r="24" fill="#F3DE9B"/>
  <circle cx="520" cy="370" r="48" fill="#1C2130" stroke="#EED48B" stroke-opacity="0.35" stroke-width="8"/>
  <circle cx="1080" cy="370" r="48" fill="#1C2130" stroke="#EED48B" stroke-opacity="0.35" stroke-width="8"/>
  <circle cx="480" cy="700" r="48" fill="#1C2130" stroke="#EED48B" stroke-opacity="0.35" stroke-width="8"/>
  <circle cx="1120" cy="700" r="48" fill="#1C2130" stroke="#EED48B" stroke-opacity="0.35" stroke-width="8"/>
  <path d="M563 395L697 472" stroke="#D4AF37" stroke-width="16" stroke-linecap="round"/>
  <path d="M1037 395L903 472" stroke="#D4AF37" stroke-width="16" stroke-linecap="round"/>
  <path d="M523 675L697 568" stroke="#D4AF37" stroke-width="16" stroke-linecap="round"/>
  <path d="M1077 675L903 568" stroke="#D4AF37" stroke-width="16" stroke-linecap="round"/>
  <rect x="240" y="860" width="1120" height="96" rx="26" fill="#151821" stroke="#EED48B" stroke-opacity="0.12"/>
  <rect x="290" y="895" width="260" height="24" rx="12" fill="#EED48B" fill-opacity="0.85"/>
  <rect x="586" y="895" width="214" height="24" rx="12" fill="#FFFFFF" fill-opacity="0.18"/>
  <rect x="836" y="895" width="214" height="24" rx="12" fill="#FFFFFF" fill-opacity="0.18"/>
  <text x="180" y="1065" fill="#F5E6B3" font-size="42" font-family="Georgia, serif">AI Agents / LLM Systems</text>
</svg>
