<svg width="1600" height="1200" viewBox="0 0 1600 1200" fill="none" xmlns="http://www.w3.org/2000/svg">
  <rect width="1600" height="1200" fill="#09090B"/>
  <rect x="90" y="90" width="1420" height="1020" rx="44" fill="#101217" stroke="#D4AF37" stroke-opacity="0.22"/>
  <circle cx="1270" cy="220" r="190" fill="#D4AF37" fill-opacity="0.12"/>
  <rect x="220" y="290" width="1160" height="530" rx="34" fill="#151821" stroke="#EED48B" stroke-opacity="0.18"/>
  <rect x="280" y="360" width="300" height="90" rx="22" fill="#1F2330"/>
  <rect x="280" y="510" width="300" height="90" rx="22" fill="#1B2231"/>
  <rect x="280" y="660" width="300" height="90" rx="22" fill="#1F2330"/>
  <rect x="720" y="360" width="380" height="390" rx="28" fill="#171A22" stroke="#D4AF37" stroke-opacity="0.18"/>
  <path d="M580 405H720" stroke="#D4AF37" stroke-width="14" stroke-linecap="round"/>
  <path d="M580 555H720" stroke="#D4AF37" stroke-width="14" stroke-linecap="round"/>
  <path d="M580 705H720" stroke="#D4AF37" stroke-width="14" stroke-linecap="round"/>
  <path d="M1110 555H1220C1270.81 555 1312 596.19 1312 647V647" stroke="#D4AF37" stroke-width="14" stroke-linecap="round"/>
  <circle cx="1206" cy="647" r="22" fill="#F3DE9B"/>
  <rect x="786" y="438" width="250" height="28" rx="14" fill="#EED48B" fill-opacity="0.85"/>
  <rect x="786" y="506" width="200" height="20" rx="10" fill="#FFFFFF" fill-opacity="0.18"/>
  <rect x="786" y="554" width="190" height="20" rx="10" fill="#FFFFFF" fill-opacity="0.14"/>
  <rect x="786" y="612" width="220" height="76" rx="20" fill="#1F2330"/>
  <text x="180" y="1065" fill="#F5E6B3" font-size="42" font-family="Georgia, serif">Backend Services / Automation</text>
</svg>
