<svg width="1600" height="1200" viewBox="0 0 1600 1200" fill="none" xmlns="http://www.w3.org/2000/svg">
  <rect width="1600" height="1200" fill="#09090B"/>
  <rect x="90" y="90" width="1420" height="1020" rx="44" fill="#101217" stroke="#D4AF37" stroke-opacity="0.22"/>
  <circle cx="1270" cy="220" r="190" fill="#D4AF37" fill-opacity="0.12"/>
  <rect x="230" y="264" width="340" height="620" rx="30" fill="#161A22" stroke="#EED48B" stroke-opacity="0.18"/>
  <rect x="630" y="264" width="340" height="620" rx="30" fill="#161A22" stroke="#EED48B" stroke-opacity="0.18"/>
  <rect x="1030" y="264" width="340" height="620" rx="30" fill="#161A22" stroke="#EED48B" stroke-opacity="0.18"/>
  <rect x="286" y="344" width="220" height="24" rx="12" fill="#FFFFFF" fill-opacity="0.18"/>
  <rect x="286" y="400" width="180" height="24" rx="12" fill="#FFFFFF" fill-opacity="0.12"/>
  <rect x="686" y="344" width="220" height="24" rx="12" fill="#FFFFFF" fill-opacity="0.18"/>
  <rect x="686" y="400" width="180" height="24" rx="12" fill="#FFFFFF" fill-opacity="0.12"/>
  <rect x="1086" y="344" width="220" height="24" rx="12" fill="#FFFFFF" fill-opacity="0.18"/>
  <rect x="1086" y="400" width="180" height="24" rx="12" fill="#FFFFFF" fill-opacity="0.12"/>
  <circle cx="800" cy="574" r="118" fill="#D4AF37" fill-opacity="0.12" stroke="#EED48B" stroke-opacity="0.34" stroke-width="10"/>
  <circle cx="800" cy="574" r="42" fill="#F3DE9B"/>
  <path d="M570 574H682" stroke="#D4AF37" stroke-width="16" stroke-linecap="round"/>
  <path d="M918 574H1030" stroke="#D4AF37" stroke-width="16" stroke-linecap="round"/>
  <path d="M800 456V344" stroke="#D4AF37" stroke-width="16" stroke-linecap="round"/>
  <path d="M800 692V804" stroke="#D4AF37" stroke-width="16" stroke-linecap="round"/>
  <rect x="720" y="780" width="160" height="48" rx="24" fill="#EED48B" fill-opacity="0.88"/>
  <text x="180" y="1065" fill="#F5E6B3" font-size="42" font-family="Georgia, serif">RAG / Retrieval Systems</text>
</svg>
